<svg width="954" height="488" viewBox="0 0 954 488" fill="none" xmlns="http://www.w3.org/2000/svg">
<g clip-path="url(#clip0_861_295)">
<path d="M90.957 437.227C70.7821 456.282 49.7633 474.428 29.6087 493.463C25.7361 499.272 14.923 499.556 8.95268 501.622C5.6885 502.752 3.30838 507.112 1.72308 510.195C-3.73618 520.81 5.10831 533.821 8.53956 543.658C11.0452 550.84 17.0552 548.222 23.825 547.376C40.443 545.298 57.0254 543.251 73.606 540.869C107.253 536.036 140.978 535.354 174.924 535.292C201.356 535.244 228.195 536.616 254.553 534.156C305.283 529.421 354.702 515.73 405.651 512.157C459.787 508.36 514.492 510.115 568.731 510.195C616.018 510.264 662.757 512.772 709.811 517.424C753 521.694 795.884 524.506 838.498 533.226C875.236 540.744 912.051 548.832 949.214 553.986C974.756 557.527 1001.49 560.131 1027.29 558.117C1038.07 557.275 1048.84 553.089 1056.52 545.31C1065.41 536.315 1070.56 524.128 1075.84 512.88C1081.6 500.596 1086.76 488.405 1090.91 475.493C1092.75 469.781 1090.8 464.326 1089.57 458.555L1089.34 457.46C1087.57 449.174 1085.82 440.96 1084.82 432.528C1084.18 427.128 1084.23 421.28 1082.76 416.003C1080.2 406.863 1072.07 397.47 1067.47 389.254C1059.31 374.681 1050.78 361.161 1041.13 347.529C1027.35 328.046 1013 309.802 995.587 293.307C979.237 277.814 960.793 268.053 940.229 259.018C911.586 246.432 882.904 233.483 853.267 223.386C838.644 218.404 823.447 214.8 807.927 214.607C790.857 214.395 773.771 214.607 756.7 214.607C740.662 214.607 724.306 213.707 708.314 215.124C672.348 218.31 635.212 233.261 599.5 239C586.094 241.155 573.782 237.683 560.5 240.5C553.049 242.081 540.506 237.46 533 239C524.046 240.837 495.408 251.944 486.5 254C463.408 259.329 466.46 252.458 444.5 261.5C437.634 264.327 417.991 263.93 411.5 267.5C404.314 271.452 406.289 270.892 399.145 274.974C390.764 279.764 378.906 281.076 369.607 282.359C363.045 283.264 356.159 285.729 349.777 287.626C329.976 293.513 311.716 303.018 292.663 310.813C286.449 313.355 279.493 314.286 273.091 316.39C263.344 319.592 253.402 322.254 243.605 325.323C217.156 333.609 192.977 349.727 170.896 366.171C142.17 387.562 116.946 412.682 90.957 437.227Z" fill="#414756"/>
</g>
<defs>
<clipPath id="clip0_861_295">
<rect width="954" height="488" fill="white"/>
</clipPath>
</defs>
</svg>
