<svg width="30" height="28" viewBox="0 0 30 28" fill="none" xmlns="http://www.w3.org/2000/svg">
<path fill-rule="evenodd" clip-rule="evenodd" d="M3.82777 0.646881C3.04889 0.646881 2.38047 1.20162 2.23693 1.96716L2.181 2.26544H2.17813L0.0566406 13.5954V25.7346C0.0566406 26.6285 0.781295 27.3531 1.6752 27.3531H28.3814C29.2753 27.3531 30 26.6285 30 25.7346V13.5954L27.876 2.26544H27.8756L27.8197 1.96716C27.6762 1.20162 27.0078 0.646881 26.2289 0.646881H3.82777ZM4.50768 3.07472L2.48448 13.5954H11.3866C11.2517 14.9442 11.9856 17.734 14.899 17.734C18.2966 17.734 18.7943 14.726 18.6701 13.5954H27.5722L25.549 3.07472H4.50768Z" fill="#414756"/>
<path d="M6.93262 5.66029C6.93262 5.108 7.38033 4.66029 7.93262 4.66029H22.933C23.4853 4.66029 23.933 5.108 23.933 5.66029V5.92979H6.93262V5.66029Z" fill="#414756"/>
<path d="M6.14014 8.60193C6.14014 8.04964 6.58785 7.60193 7.14014 7.60193H23.7259C24.2782 7.60193 24.7259 8.04964 24.7259 8.60193V8.87143H6.14014V8.60193Z" fill="#414756"/>
<path d="M5.18652 11.5602C5.18652 11.0079 5.63424 10.5602 6.18652 10.5602H24.6795C25.2318 10.5602 25.6795 11.0079 25.6795 11.5602V11.7966H5.18652V11.5602Z" fill="#414756"/>
</svg>
