<svg width="954" height="488" viewBox="0 0 954 488" fill="none" xmlns="http://www.w3.org/2000/svg">
<g clip-path="url(#clip0_861_295)">
<mask id="path-1-outside-1_861_295" maskUnits="userSpaceOnUse" x="350.075" y="-13.7133" width="304.241" height="285.663" fill="black">
<rect fill="white" x="350.075" y="-13.7133" width="304.241" height="285.663"/>
<path fill-rule="evenodd" clip-rule="evenodd" d="M473.486 22.5393C475.526 17.3792 486.261 11.3578 489.612 10.2275C493.8 8.81469 499.105 18.7848 500.073 39.0193C507.751 46.8836 523.344 63.1369 524.291 65.2355C524.958 66.7139 522.545 69.9917 520.099 72.7092C520.508 72.7874 520.916 72.8676 521.323 72.9498C537.114 72.2718 561.308 75.4281 582.165 87.3818C592.693 76.4916 610.25 52.0569 605.331 31.2992C621.193 32.3577 625.03 65.7051 626.588 79.2445C626.782 80.9341 626.941 82.3153 627.084 83.2867C628.328 93.5945 628.026 116.568 617.156 127.44C619.349 133.124 621.02 139.361 622.056 146.197C626.652 226.63 604.733 235.835 596.065 235.307C590.587 234.974 590.705 227.915 590.816 221.307C590.88 217.459 590.942 213.765 589.895 211.64C588.295 208.39 582.16 198.483 576.771 189.948C574.7 206.279 571.326 229.694 569.372 231.962C566.522 235.27 560.28 238.185 556.197 236.116C553.126 234.559 550.688 215.59 549.686 204.626C535.452 213.833 518.125 220.475 498.959 223.283C496.831 223.595 494.693 223.862 492.551 224.082C490.925 235.791 488.439 250.269 486.509 250.552C485.59 250.687 484.319 250.914 482.932 251.161L482.927 251.162L482.92 251.163L482.919 251.163L482.919 251.163L482.918 251.164L482.918 251.164L482.918 251.164L482.918 251.164C479.711 251.736 475.884 252.419 474.322 252.338C472.684 252.253 465.253 234.644 460.833 223.597C454.975 222.731 449.303 221.391 443.944 219.528C442.184 218.916 440.452 218.259 438.749 217.558C437.051 228.015 431.202 258.563 428.811 260.341C426.205 262.279 415.664 263.157 413.578 262.574C411.997 262.132 406.36 218.498 403.315 193.279C401.633 191.508 400.038 189.699 398.534 187.859C383.821 174.139 372.82 153.205 369.232 128.72C365.717 104.736 369.993 81.9742 379.717 64.7325C377.262 60.1591 374.988 55.4106 374.655 52.9726C373.84 47 375.34 37.8072 379.36 34.342C383.994 32.8154 393.496 36.7226 398.41 41.337L399.189 42.7681C399.205 42.757 399.221 42.7459 399.237 42.7348C399.276 42.7077 399.315 42.6807 399.354 42.6537C405.626 30.7089 419.394 21.2564 436.401 18.7641C450.113 16.7546 463.107 19.6838 472.572 25.9484L473.486 22.5393Z"/>
</mask>
<path fill-rule="evenodd" clip-rule="evenodd" d="M473.486 22.5393C475.526 17.3792 486.261 11.3578 489.612 10.2275C493.8 8.81469 499.105 18.7848 500.073 39.0193C507.751 46.8836 523.344 63.1369 524.291 65.2355C524.958 66.7139 522.545 69.9917 520.099 72.7092C520.508 72.7874 520.916 72.8676 521.323 72.9498C537.114 72.2718 561.308 75.4281 582.165 87.3818C592.693 76.4916 610.25 52.0569 605.331 31.2992C621.193 32.3577 625.03 65.7051 626.588 79.2445C626.782 80.9341 626.941 82.3153 627.084 83.2867C628.328 93.5945 628.026 116.568 617.156 127.44C619.349 133.124 621.02 139.361 622.056 146.197C626.652 226.63 604.733 235.835 596.065 235.307C590.587 234.974 590.705 227.915 590.816 221.307C590.88 217.459 590.942 213.765 589.895 211.64C588.295 208.39 582.16 198.483 576.771 189.948C574.7 206.279 571.326 229.694 569.372 231.962C566.522 235.27 560.28 238.185 556.197 236.116C553.126 234.559 550.688 215.59 549.686 204.626C535.452 213.833 518.125 220.475 498.959 223.283C496.831 223.595 494.693 223.862 492.551 224.082C490.925 235.791 488.439 250.269 486.509 250.552C485.59 250.687 484.319 250.914 482.932 251.161L482.927 251.162L482.92 251.163L482.919 251.163L482.919 251.163L482.918 251.164L482.918 251.164L482.918 251.164L482.918 251.164C479.711 251.736 475.884 252.419 474.322 252.338C472.684 252.253 465.253 234.644 460.833 223.597C454.975 222.731 449.303 221.391 443.944 219.528C442.184 218.916 440.452 218.259 438.749 217.558C437.051 228.015 431.202 258.563 428.811 260.341C426.205 262.279 415.664 263.157 413.578 262.574C411.997 262.132 406.36 218.498 403.315 193.279C401.633 191.508 400.038 189.699 398.534 187.859C383.821 174.139 372.82 153.205 369.232 128.72C365.717 104.736 369.993 81.9742 379.717 64.7325C377.262 60.1591 374.988 55.4106 374.655 52.9726C373.84 47 375.34 37.8072 379.36 34.342C383.994 32.8154 393.496 36.7226 398.41 41.337L399.189 42.7681C399.205 42.757 399.221 42.7459 399.237 42.7348C399.276 42.7077 399.315 42.6807 399.354 42.6537C405.626 30.7089 419.394 21.2564 436.401 18.7641C450.113 16.7546 463.107 19.6838 472.572 25.9484L473.486 22.5393Z" fill="#FDFDFD"/>
<path d="M489.612 10.2275L488.333 6.43738L488.333 6.43738L489.612 10.2275ZM473.486 22.5393L469.766 21.0684L469.681 21.2822L469.622 21.5042L473.486 22.5393ZM500.073 39.0193L496.077 39.2103L496.15 40.7271L497.211 41.8136L500.073 39.0193ZM524.291 65.2355L520.645 66.8805L520.645 66.8805L524.291 65.2355ZM520.099 72.7092L517.126 70.0333L512.381 75.3055L519.348 76.6379L520.099 72.7092ZM521.323 72.9498L520.53 76.8705L521.008 76.967L521.494 76.9461L521.323 72.9498ZM582.165 87.3818L580.176 90.8522L582.877 92.4002L585.041 90.162L582.165 87.3818ZM605.331 31.2992L605.598 27.3081L600.189 26.9471L601.439 32.2215L605.331 31.2992ZM626.588 79.2445L622.614 79.7017L622.614 79.7017L626.588 79.2445ZM627.084 83.2867L631.055 82.8075L631.049 82.757L631.041 82.7067L627.084 83.2867ZM617.156 127.44L614.327 124.612L612.488 126.452L613.424 128.88L617.156 127.44ZM622.056 146.197L626.05 145.969L626.039 145.783L626.011 145.598L622.056 146.197ZM596.065 235.307L596.308 231.314L596.308 231.314L596.065 235.307ZM590.816 221.307L586.816 221.24L590.816 221.307ZM589.895 211.64L593.484 209.873L593.484 209.873L589.895 211.64ZM576.771 189.948L580.153 187.812L574.204 178.392L572.802 189.445L576.771 189.948ZM569.372 231.962L566.341 229.351L566.341 229.351L569.372 231.962ZM556.197 236.116L558.005 232.548L556.197 236.116ZM549.686 204.626L553.67 204.262L553.068 197.675L547.514 201.268L549.686 204.626ZM492.551 224.082L492.142 220.103L489.021 220.424L488.589 223.532L492.551 224.082ZM482.932 251.161L483.631 255.1L483.634 255.099L482.932 251.161ZM482.927 251.162L482.228 247.224L482.219 247.225L482.927 251.162ZM482.92 251.163L482.212 247.226L482.163 247.235L482.115 247.245L482.92 251.163ZM482.919 251.163L483.499 255.121L483.612 255.105L483.724 255.082L482.919 251.163ZM482.918 251.164L482.338 247.206L482.276 247.215L482.215 247.226L482.918 251.164ZM474.322 252.338L474.53 248.343L474.53 248.343L474.322 252.338ZM460.833 223.597L464.547 222.111L463.693 219.977L461.419 219.64L460.833 223.597ZM443.944 219.528L445.257 215.75L443.944 219.528ZM438.749 217.558L440.27 213.859L435.608 211.941L434.8 216.917L438.749 217.558ZM428.811 260.341L426.424 257.132L426.424 257.132L428.811 260.341ZM413.578 262.574L414.655 258.722L413.578 262.574ZM403.315 193.279L407.286 192.799L407.127 191.484L406.215 190.524L403.315 193.279ZM398.534 187.859L401.63 185.327L401.459 185.118L401.262 184.934L398.534 187.859ZM379.717 64.7325L383.201 66.6974L384.282 64.7801L383.241 62.8408L379.717 64.7325ZM374.655 52.9726L378.618 52.4316L374.655 52.9726ZM379.36 34.342L378.109 30.543L377.352 30.7922L376.749 31.312L379.36 34.342ZM398.41 41.337L401.922 39.4239L401.616 38.8605L401.148 38.4213L398.41 41.337ZM399.189 42.7681L395.676 44.6812L397.807 48.5948L401.469 46.0546L399.189 42.7681ZM399.237 42.7348L401.513 46.0239L401.513 46.0238L399.237 42.7348ZM399.354 42.6537L401.622 45.9486L402.436 45.3883L402.896 44.5133L399.354 42.6537ZM472.572 25.9484L470.365 29.284L474.998 32.3508L476.436 26.9835L472.572 25.9484ZM488.333 6.43738C486.186 7.16164 482.328 9.16201 478.802 11.5684C477.003 12.7965 475.169 14.2117 473.607 15.7291C472.099 17.1947 470.581 19.0078 469.766 21.0684L477.205 24.0101C477.411 23.4907 477.999 22.6161 479.183 21.4662C480.313 20.3679 481.754 19.2396 483.312 18.1761C486.502 15.9992 489.687 14.4237 490.89 14.0177L488.333 6.43738ZM504.068 38.8282C503.572 28.4557 501.957 20.413 499.755 14.9986C498.668 12.3262 497.32 9.99691 495.64 8.39236C493.918 6.74745 491.3 5.43658 488.333 6.43738L490.89 14.0177C490.018 14.3121 489.633 13.7176 490.114 14.1771C490.637 14.6769 491.461 15.8398 492.345 18.0127C494.084 22.2887 495.606 29.3483 496.077 39.2103L504.068 38.8282ZM527.937 63.5906C527.569 62.7757 526.866 61.8879 526.409 61.3203C525.822 60.5911 525.059 59.7016 524.185 58.7119C522.431 56.726 520.122 54.2183 517.624 51.5539C512.623 46.219 506.785 40.1689 502.935 36.2249L497.211 41.8136C501.038 45.734 506.836 51.7427 511.788 57.0252C514.267 59.6694 516.513 62.1101 518.189 64.0077C519.03 64.9597 519.701 65.7458 520.178 66.3378C520.785 67.0915 520.776 67.1707 520.645 66.8805L527.937 63.5906ZM523.072 75.385C524.36 73.954 525.759 72.2474 526.77 70.6015C527.27 69.7881 527.776 68.829 528.086 67.8154C528.368 66.8954 528.694 65.2676 527.937 63.5906L520.645 66.8805C520.222 65.9426 520.496 65.2789 520.436 65.4743C520.405 65.5759 520.28 65.8833 519.954 66.4139C519.314 67.4558 518.284 68.7468 517.126 70.0333L523.072 75.385ZM522.115 69.029C521.695 68.9441 521.273 68.8612 520.851 68.7804L519.348 76.6379C519.743 76.7135 520.137 76.7911 520.53 76.8705L522.115 69.029ZM584.154 83.9114C562.484 71.4914 537.493 68.2518 521.151 68.9535L521.494 76.9461C536.735 76.2917 560.133 79.3648 580.176 90.8522L584.154 83.9114ZM601.439 32.2215C603.58 41.2576 600.886 51.5192 595.971 61.2355C591.098 70.8704 584.337 79.3805 579.289 84.6016L585.041 90.162C590.522 84.4929 597.802 75.3406 603.11 64.8461C608.377 54.4331 612.001 42.0985 609.224 30.3769L601.439 32.2215ZM630.562 78.7873C629.789 72.0671 628.409 59.9823 625.146 49.4117C623.518 44.1366 621.337 38.9487 618.326 34.9335C615.284 30.8776 611.114 27.6762 605.598 27.3081L605.065 35.2903C607.48 35.4515 609.737 36.8154 611.925 39.733C614.144 42.6911 615.993 46.8848 617.502 51.7713C620.512 61.5239 621.83 72.8824 622.614 79.7017L630.562 78.7873ZM631.041 82.7067C630.91 81.8117 630.759 80.5053 630.562 78.7873L622.614 79.7017C622.805 81.363 622.972 82.8189 623.126 83.8667L631.041 82.7067ZM619.985 130.268C626.324 123.928 629.294 114.437 630.617 105.754C631.957 96.9569 631.714 88.2691 631.055 82.8075L623.113 83.7659C623.697 88.6121 623.925 96.5648 622.708 104.549C621.474 112.649 618.858 120.08 614.327 124.612L619.985 130.268ZM626.011 145.598C624.933 138.486 623.19 131.967 620.888 126.001L613.424 128.88C615.508 134.281 617.106 140.236 618.102 146.797L626.011 145.598ZM595.822 239.3C602.02 239.677 611.049 236.369 617.63 222.864C624.068 209.653 628.361 186.419 626.05 145.969L618.063 146.426C620.347 186.408 615.978 207.993 610.438 219.36C605.042 230.434 598.777 231.465 596.308 231.314L595.822 239.3ZM586.816 221.24C586.764 224.371 586.669 228.367 587.458 231.607C587.866 233.28 588.59 235.133 589.994 236.637C591.497 238.248 593.5 239.158 595.822 239.3L596.308 231.314C595.891 231.289 595.855 231.192 595.843 231.179C595.731 231.059 595.465 230.672 595.231 229.713C594.737 227.688 594.757 224.85 594.815 221.373L586.816 221.24ZM586.306 213.407C586.468 213.734 586.68 214.533 586.78 216.084C586.875 217.561 586.849 219.274 586.816 221.24L594.815 221.373C594.846 219.492 594.883 217.434 594.764 215.571C594.649 213.782 594.369 211.671 593.484 209.873L586.306 213.407ZM573.389 192.083C578.845 200.724 584.825 210.398 586.306 213.407L593.484 209.873C591.764 206.381 585.475 196.241 580.153 187.812L573.389 192.083ZM572.402 234.573C572.912 233.981 573.229 233.327 573.413 232.912C573.624 232.435 573.81 231.912 573.977 231.39C574.311 230.342 574.64 229.05 574.963 227.616C575.612 224.734 576.296 220.995 576.974 216.878C578.332 208.63 579.701 198.638 580.739 190.451L572.802 189.445C571.77 197.589 570.416 207.47 569.081 215.579C568.412 219.641 567.757 223.202 567.159 225.858C566.858 227.193 566.587 228.231 566.354 228.961C566.238 229.327 566.149 229.557 566.095 229.679C566.013 229.864 566.076 229.659 566.341 229.351L572.402 234.573ZM554.389 239.684C557.827 241.426 561.679 240.883 564.615 239.814C567.62 238.72 570.487 236.795 572.402 234.573L566.341 229.351C565.406 230.436 563.727 231.623 561.878 232.296C559.961 232.995 558.65 232.874 558.005 232.548L554.389 239.684ZM545.703 204.99C546.209 210.53 547.081 218.136 548.227 224.597C548.797 227.812 549.456 230.864 550.206 233.271C550.579 234.465 551.014 235.634 551.537 236.628C551.968 237.448 552.829 238.893 554.389 239.684L558.005 232.548C558.798 232.949 558.91 233.461 558.617 232.903C558.414 232.518 558.148 231.864 557.844 230.89C557.242 228.96 556.653 226.293 556.104 223.2C555.013 217.047 554.165 209.686 553.67 204.262L545.703 204.99ZM499.539 227.241C519.251 224.352 537.125 217.515 551.859 207.985L547.514 201.268C533.78 210.152 516.999 216.597 498.379 219.326L499.539 227.241ZM492.96 228.061C495.16 227.835 497.355 227.561 499.539 227.241L498.379 219.326C496.307 219.629 494.226 219.889 492.142 220.103L492.96 228.061ZM487.089 254.51C488.391 254.319 489.26 253.61 489.704 253.167C490.172 252.699 490.502 252.193 490.725 251.804C491.175 251.021 491.535 250.097 491.831 249.215C492.437 247.408 493.017 245.022 493.56 242.417C494.653 237.168 495.695 230.518 496.513 224.633L488.589 223.532C487.78 229.355 486.766 235.799 485.728 240.786C485.204 243.301 484.7 245.319 484.246 246.672C484.012 247.37 483.849 247.715 483.787 247.823C483.754 247.88 483.831 247.726 484.05 247.507C484.245 247.312 484.869 246.75 485.929 246.594L487.089 254.51ZM483.634 255.099C485.048 254.847 486.246 254.633 487.089 254.51L485.929 246.594C484.933 246.74 483.591 246.98 482.229 247.223L483.634 255.099ZM483.626 255.1L483.631 255.1L482.233 247.223L482.228 247.224L483.626 255.1ZM483.629 255.1L483.636 255.099L482.219 247.225L482.212 247.226L483.629 255.1ZM483.724 255.082L483.725 255.081L482.115 247.245L482.114 247.245L483.724 255.082ZM483.499 255.121L483.499 255.121L482.339 247.206L482.339 247.206L483.499 255.121ZM483.498 255.121L483.499 255.121L482.339 247.206L482.338 247.206L483.498 255.121ZM483.498 255.121L483.498 255.121L482.338 247.206L482.338 247.206L483.498 255.121ZM483.498 255.121L483.498 255.121L482.338 247.206L482.338 247.206L483.498 255.121ZM483.498 255.121L483.498 255.121L482.338 247.206L482.338 247.206L483.498 255.121ZM474.115 256.333C475.362 256.397 477.103 256.175 478.594 255.952C480.214 255.71 482.03 255.385 483.62 255.101L482.215 247.226C480.598 247.514 478.898 247.818 477.411 248.04C475.797 248.281 474.844 248.36 474.53 248.343L474.115 256.333ZM457.12 225.083C459.339 230.631 462.326 237.855 464.975 243.724C466.294 246.646 467.562 249.307 468.629 251.273C469.154 252.24 469.691 253.153 470.209 253.871C470.46 254.219 470.799 254.652 471.214 255.041C471.451 255.263 472.488 256.248 474.115 256.333L474.53 248.343C475.328 248.385 475.896 248.667 476.161 248.82C476.443 248.984 476.62 249.143 476.684 249.204C476.809 249.32 476.816 249.355 476.698 249.192C476.479 248.888 476.132 248.325 475.661 247.457C474.735 245.752 473.563 243.304 472.267 240.433C469.686 234.715 466.748 227.611 464.547 222.111L457.12 225.083ZM442.63 223.306C448.253 225.261 454.172 226.655 460.248 227.554L461.419 219.64C455.778 218.806 450.353 217.522 445.257 215.75L442.63 223.306ZM437.227 221.257C438.998 221.986 440.8 222.67 442.63 223.306L445.257 215.75C443.569 215.163 441.906 214.532 440.27 213.859L437.227 221.257ZM431.198 263.551C432.098 262.882 432.604 261.98 432.819 261.58C433.108 261.044 433.365 260.443 433.591 259.849C434.049 258.652 434.519 257.133 434.988 255.448C435.93 252.058 436.958 247.656 437.95 243.046C439.938 233.815 441.837 223.496 442.697 218.199L434.8 216.917C433.963 222.077 432.089 232.261 430.13 241.362C429.149 245.919 428.16 250.141 427.28 253.305C426.837 254.898 426.445 256.139 426.119 256.993C425.953 257.426 425.837 257.673 425.777 257.785C425.643 258.034 425.823 257.579 426.424 257.132L431.198 263.551ZM412.5 266.426C413.674 266.754 415.296 266.772 416.564 266.743C418.03 266.709 419.754 266.582 421.479 266.374C423.196 266.167 424.996 265.869 426.592 265.471C428.025 265.114 429.858 264.548 431.198 263.551L426.424 257.132C426.462 257.104 425.999 257.374 424.658 257.709C423.479 258.002 422.025 258.25 420.52 258.432C419.023 258.613 417.558 258.718 416.379 258.745C415.002 258.777 414.524 258.685 414.655 258.722L412.5 266.426ZM399.344 193.758C400.868 206.38 403.042 223.623 405.034 237.776C406.03 244.845 406.985 251.183 407.796 255.798C408.199 258.094 408.578 260.034 408.92 261.446C409.087 262.134 409.273 262.814 409.482 263.382C409.58 263.65 409.739 264.047 409.977 264.448C410.096 264.649 410.302 264.966 410.615 265.292C410.9 265.589 411.519 266.152 412.5 266.426L414.655 258.722C415.587 258.982 416.154 259.51 416.386 259.752C416.646 260.022 416.796 260.263 416.858 260.367C416.982 260.576 417.019 260.7 416.989 260.618C416.94 260.485 416.84 260.158 416.695 259.562C416.415 258.404 416.07 256.666 415.675 254.415C414.889 249.936 413.948 243.707 412.956 236.66C410.974 222.581 408.807 205.397 407.286 192.799L399.344 193.758ZM395.437 190.391C397.005 192.308 398.666 194.192 400.414 196.033L406.215 190.524C404.601 188.824 403.071 187.089 401.63 185.327L395.437 190.391ZM365.274 129.3C368.98 154.588 380.362 176.383 395.806 190.785L401.262 184.934C387.28 171.896 376.66 151.821 373.19 128.14L365.274 129.3ZM376.233 62.7676C366.032 80.8558 361.644 104.527 365.274 129.3L373.19 128.14C369.791 104.945 373.955 83.0926 383.201 66.6974L376.233 62.7676ZM370.692 53.5136C370.943 55.3502 371.815 57.6059 372.735 59.6761C373.708 61.8672 374.942 64.2948 376.192 66.6242L383.241 62.8408C382.037 60.5968 380.906 58.3634 380.046 56.4274C379.131 54.3706 378.7 53.033 378.618 52.4316L370.692 53.5136ZM376.749 31.312C373.752 33.8952 372.126 38.098 371.29 41.8463C370.422 45.7408 370.214 50.0117 370.692 53.5136L378.618 52.4316C378.281 49.9609 378.416 46.6491 379.098 43.5877C379.814 40.3803 380.948 38.2541 381.972 37.372L376.749 31.312ZM401.148 38.4213C398.238 35.6887 394.158 33.3086 390.207 31.7998C388.211 31.0375 386.136 30.4543 384.148 30.1797C382.212 29.9122 380.07 29.8966 378.109 30.543L380.612 38.1411C380.967 38.0242 381.751 37.9244 383.053 38.1044C384.304 38.2772 385.78 38.673 387.353 39.2735C390.54 40.4902 393.668 42.371 395.671 44.2527L401.148 38.4213ZM402.702 40.855L401.922 39.4239L394.897 43.2501L395.676 44.6812L402.702 40.855ZM396.961 39.4457C396.943 39.4576 396.926 39.4695 396.909 39.4816L401.469 46.0546C401.484 46.0444 401.498 46.0342 401.513 46.0239L396.961 39.4457ZM397.086 39.3588C397.044 39.3877 397.003 39.4167 396.96 39.4457L401.513 46.0238C401.55 45.9988 401.586 45.9737 401.622 45.9486L397.086 39.3588ZM435.821 14.8064C417.767 17.4521 402.776 27.534 395.813 40.7942L402.896 44.5133C408.477 33.8838 421.021 25.0607 436.981 22.7218L435.821 14.8064ZM474.78 22.6128C464.416 15.7533 450.411 12.6682 435.821 14.8064L436.981 22.7218C449.816 20.8409 461.798 23.6142 470.365 29.284L474.78 22.6128ZM469.622 21.5042L468.709 24.9134L476.436 26.9835L477.349 23.5743L469.622 21.5042Z" fill="#9B9DA1" mask="url(#path-1-outside-1_861_295)"/>
<path opacity="0.5" d="M605.331 31.2992C610.356 53.753 590.463 79.0162 582.715 86.5367C599.078 96.7824 611.47 114.131 617.65 127.265C628.596 113.83 628.351 93.7918 627.084 83.2868C625.801 74.5312 623.173 32.4899 605.331 31.2992Z" fill="#D9D9D9"/>
<path opacity="0.7" d="M413.578 262.574C411.909 262.107 406.403 219.083 403.516 194.831C415.5 205.64 437.737 216.019 438.139 221.132C436.87 228.233 431.417 258.403 428.811 260.341C426.205 262.279 415.664 263.157 413.578 262.574Z" fill="#D9D9D9"/>
<path opacity="0.7" d="M569.371 231.962C566.521 235.269 560.279 238.185 556.197 236.116C553.337 234.666 551.025 218.115 549.912 206.992L576.664 190.785C574.585 207.068 571.292 229.732 569.371 231.962Z" fill="#D9D9D9"/>
<path d="M578.184 196.013L571.339 184.979" stroke="#9B9DA1" stroke-width="4"/>
<path d="M400.834 193.423C413.498 206.692 435.84 218.635 440.056 220.182" stroke="#9B9DA1" stroke-width="4"/>
<path d="M548.401 207.719C556.06 202.625 571.71 192.161 575.282 190.42" stroke="#9B9DA1" stroke-width="4"/>
<path d="M459.48 225.482L450.444 199.767" stroke="#9B9DA1" stroke-width="4"/>
<path d="M494.105 226.964L497.811 199.962" stroke="#9B9DA1" stroke-width="4"/>
<path d="M581.705 84.8675C593.959 91.7278 616.298 118.75 619.311 127.697" stroke="#9B9DA1" stroke-width="4"/>
<path d="M436.401 18.764C419.464 21.2461 405.74 30.6312 399.432 42.5064L472.487 25.8917C463.029 19.666 450.072 16.7606 436.401 18.764Z" fill="url(#paint0_linear_861_295)"/>
<path d="M489.856 10.1917C486.505 11.322 475.526 17.3793 473.485 22.5393L467.804 43.7482L517.228 75.6596C519.977 73.0594 525.237 67.3342 524.291 65.2356C523.344 63.1369 507.751 46.8836 500.072 39.0193C499.105 18.7848 494.044 8.7789 489.856 10.1917Z" fill="url(#paint1_linear_861_295)"/>
<circle cx="453.295" cy="75.4954" r="6.73653" transform="rotate(-8.33721 453.295 75.4954)" fill="black"/>
<circle cx="408.657" cy="76.2012" r="6.73653" transform="rotate(-8.33721 408.657 76.2012)" fill="black"/>
<circle cx="450.808" cy="73.8077" r="2.475" transform="rotate(-8.33721 450.808 73.8077)" fill="#FDFDFD"/>
<circle cx="405.808" cy="74.8079" r="2.4752" transform="rotate(-8.33721 405.808 74.8079)" fill="#FDFDFD"/>
<rect x="423.309" y="94.3587" width="16.5281" height="7.12224" rx="2" transform="rotate(-0.579363 423.309 94.3587)" fill="black"/>
<rect x="426.012" y="96.4239" width="2.55481" height="1.10091" rx="0.550454" transform="rotate(-0.577214 426.012 96.4239)" fill="white" fill-opacity="0.77"/>
<path d="M619.755 203.519C623.291 183.443 623.359 159.879 622.036 145.992C621.634 141.772 620.617 138.728 619.919 135.11C615.513 119.613 605.732 108.974 589.238 92.9182C587.606 91.4678 585.839 90.1999 584.081 88.679C568.229 78.1572 541.677 71.6569 520.398 72.9128C520.398 72.9128 547.961 89.8921 561.145 109.891C577.496 134.695 580.24 137.683 589.718 153.27C606.144 180.28 619.755 203.519 619.755 203.519Z" fill="url(#paint2_linear_861_295)"/>
<path d="M495.325 31.6116C491.855 29.7814 489.074 28.3456 486.723 27.1317C483.281 25.3546 480.76 24.0532 478.348 22.6863C478.753 22.0863 479.428 21.3702 480.296 20.5889C481.357 19.6343 482.659 18.6238 483.986 17.6642C486.563 15.8016 489.206 14.1529 490.302 13.5095C490.469 13.5071 490.668 13.5689 490.908 13.7419C491.193 13.9476 491.503 14.2902 491.826 14.7801C492.469 15.7586 493.097 17.2282 493.64 19.0459C494.663 22.4721 495.355 27.0347 495.325 31.6116Z" fill="#EDD8D8" stroke="#9B9DA1"/>
<path d="M378.345 46.8718C378.592 48.3443 379.64 56.0428 381.359 58.8355L394.029 43.2038C391.795 40.6509 382.451 36.8997 380.913 38.9781C378.991 41.5762 377.991 44.7671 378.345 46.8718Z" fill="#EDD8D8" stroke="#9B9DA1"/>
<path d="M442.263 121.199C438.315 120.665 437.476 117.857 437.217 115.988L454.072 114.721C454.592 114.928 454.734 114.286 455.578 117C456.634 120.392 453.338 120.464 453.431 122.952C453.524 125.441 451.514 130.391 448.088 128.024C444.662 125.658 447.199 121.866 442.263 121.199Z" fill="#BFD9DD" stroke="black" stroke-width="0.5"/>
<path d="M429.967 111.913C429.315 116.067 423.729 118.641 417.491 117.662C411.253 116.682 406.725 112.521 407.377 108.366C408.029 104.212 413.615 101.638 419.853 102.617C426.091 103.597 430.619 107.759 429.967 111.913Z" fill="#FDFDFD"/>
<ellipse cx="444.166" cy="109.264" rx="12.7063" ry="7.33424" transform="rotate(8.92279 444.166 109.264)" fill="#FDFDFD"/>
<path d="M431.757 100.612C430.832 103.061 431.099 112.693 431.554 113.749" stroke="black" stroke-width="3"/>
<path d="M433.515 112.313L432.39 111.32L430.405 113.57L431.53 114.562L433.515 112.313ZM456.556 102.884C456.028 102.246 455.082 102.157 454.444 102.685C453.806 103.214 453.717 104.159 454.245 104.797L456.556 102.884ZM431.53 114.562C433.759 116.53 437.095 117.543 440.489 117.873C443.919 118.206 447.635 117.864 450.814 116.91C453.931 115.974 456.838 114.354 458.228 111.886C458.947 110.609 459.231 109.15 458.947 107.576C458.669 106.029 457.862 104.462 456.556 102.884L454.245 104.797C455.328 106.106 455.834 107.211 455.995 108.107C456.151 108.975 456 109.728 455.614 110.413C454.793 111.87 452.802 113.181 449.952 114.036C447.164 114.873 443.841 115.184 440.779 114.887C437.681 114.586 435.07 113.685 433.515 112.313L431.53 114.562Z" fill="black"/>
<path d="M408.064 102.779C408.624 102.169 409.573 102.128 410.184 102.689C410.794 103.249 410.834 104.198 410.274 104.808L408.064 102.779ZM432.697 111.894C430.917 115.645 427.787 117.667 424.349 118.404C420.956 119.132 417.26 118.62 414.113 117.375C410.991 116.139 408.186 114.09 406.775 111.514C406.057 110.203 405.691 108.73 405.881 107.185C406.072 105.639 406.804 104.15 408.064 102.779L410.274 104.808C409.359 105.804 408.96 106.732 408.859 107.553C408.757 108.374 408.939 109.219 409.407 110.073C410.368 111.827 412.485 113.504 415.217 114.585C417.924 115.656 421.013 116.051 423.72 115.471C426.38 114.9 428.662 113.399 429.987 110.608L432.697 111.894Z" fill="black"/>
<circle cx="418.02" cy="106.526" r="0.605225" transform="rotate(8.92279 418.02 106.526)" fill="black"/>
<circle cx="422.692" cy="112.692" r="0.605225" transform="rotate(8.92279 422.692 112.692)" fill="black"/>
<circle cx="415.947" cy="111.925" r="0.605225" transform="rotate(8.92279 415.947 111.925)" fill="black"/>
<circle cx="445.242" cy="112.722" r="0.605225" transform="rotate(8.92279 445.242 112.722)" fill="black"/>
<circle cx="439.734" cy="107.512" r="0.605225" transform="rotate(8.92279 439.734 107.512)" fill="black"/>
<circle cx="450.073" cy="106.749" r="0.605225" transform="rotate(8.92279 450.073 106.749)" fill="black"/>
</g>
<defs>
<linearGradient id="paint0_linear_861_295" x1="436.738" y1="20.5787" x2="439.788" y2="37.8663" gradientUnits="userSpaceOnUse">
<stop stop-color="#EBEBEB"/>
<stop offset="0.64491" stop-color="#EBEBEB" stop-opacity="0"/>
</linearGradient>
<linearGradient id="paint1_linear_861_295" x1="495.539" y1="20.6585" x2="488.274" y2="37.9395" gradientUnits="userSpaceOnUse">
<stop stop-color="#EBEBEB"/>
<stop offset="1" stop-color="#EBEBEB" stop-opacity="0"/>
</linearGradient>
<linearGradient id="paint2_linear_861_295" x1="588.126" y1="106.608" x2="568.697" y2="120.426" gradientUnits="userSpaceOnUse">
<stop stop-color="#EBEBEB"/>
<stop offset="1" stop-color="#EBEBEB" stop-opacity="0"/>
</linearGradient>
<clipPath id="clip0_861_295">
<rect width="954" height="488" fill="white"/>
</clipPath>
</defs>
</svg>
