<svg width="113" height="101" viewBox="0 0 113 101" fill="none" xmlns="http://www.w3.org/2000/svg">
<g clip-path="url(#clip0_872_356)">
<mask id="path-1-outside-1_872_356" maskUnits="userSpaceOnUse" x="18.5137" y="6.09818" width="89.5912" height="85.6684" fill="black">
<rect fill="white" x="18.5137" y="6.09818" width="89.5912" height="85.6684"/>
<path fill-rule="evenodd" clip-rule="evenodd" d="M59.7295 13.8414C60.6638 12.2869 62.8178 9.13163 63.9587 8.94668C65.3849 8.7155 68.1915 14.0034 67.4195 20.5798C69.474 23.5269 73.6312 29.6032 73.824 30.3306C73.9599 30.843 73.0062 31.7706 72.072 32.5159C72.1997 32.563 72.3269 32.6107 72.4536 32.659C77.5818 33.2864 85.2141 35.6003 91.2989 40.5722C95.277 37.6247 102.247 30.6864 101.773 23.7297C106.831 24.9208 106.282 35.8791 106.059 40.3283C106.031 40.8835 106.008 41.3374 106.002 41.6583C105.851 45.0486 104.523 52.4401 100.435 55.3635C100.838 57.3137 101.043 59.4142 101.011 61.6743C98.1832 87.8555 90.6223 89.6494 87.8558 89.0149C86.1073 88.6139 86.5235 86.344 86.9132 84.2192C87.14 82.9822 87.3578 81.7943 87.1342 81.0529C86.7923 79.9191 85.3451 76.396 84.0645 73.3552C82.5218 78.5102 80.1794 85.8795 79.4278 86.5062C78.3317 87.42 76.1628 88.0257 74.9572 87.1397C74.0503 86.4733 74.2803 80.2263 74.5448 76.6372C69.4619 78.8435 63.5188 80.0566 57.1885 79.9354C56.4856 79.922 55.7819 79.8935 55.0794 79.8498C53.9277 83.538 52.3504 88.0733 51.7131 88.0611C51.4085 88.0553 50.9851 88.0604 50.5228 88.0659L50.5224 88.0659L50.5222 88.0659L50.522 88.0659C49.4573 88.0787 48.1869 88.0939 47.6878 87.9841C47.164 87.8688 45.7115 81.793 44.8782 77.9941C43.0355 77.4008 41.2783 76.6651 39.6501 75.7771C39.1156 75.4856 38.5923 75.1807 38.0805 74.8635C36.973 78.1444 33.4504 87.6812 32.5841 88.1265C31.64 88.6118 28.1938 88.3301 27.5525 88.0302C27.0665 87.803 27.5865 73.4315 27.9558 65.1364C27.5084 64.4754 27.091 63.8064 26.7045 63.1327C22.6954 57.9206 20.2698 50.5809 20.4246 42.4937C20.5705 34.8738 22.98 28.0047 26.7757 23.008C26.6924 21.3442 26.4416 15.4356 26.9847 13.745C27.6638 11.6309 29.5046 8.85356 31.1964 8.4045C32.6039 8.6707 33.6168 12.1462 34.3247 14.5749L34.3248 14.5749L34.3248 14.575L34.3249 14.5755C34.4076 14.859 34.486 15.1282 34.5605 15.3764L34.6698 16.3928L34.7485 16.3557C37.4108 12.8401 42.3566 10.5298 47.974 10.6373C52.5031 10.724 56.5359 12.3646 59.2524 14.8918L59.7295 13.8414Z"/>
</mask>
<path fill-rule="evenodd" clip-rule="evenodd" d="M59.7295 13.8414C60.6638 12.2869 62.8178 9.13163 63.9587 8.94668C65.3849 8.7155 68.1915 14.0034 67.4195 20.5798C69.474 23.5269 73.6312 29.6032 73.824 30.3306C73.9599 30.843 73.0062 31.7706 72.072 32.5159C72.1997 32.563 72.3269 32.6107 72.4536 32.659C77.5818 33.2864 85.2141 35.6003 91.2989 40.5722C95.277 37.6247 102.247 30.6864 101.773 23.7297C106.831 24.9208 106.282 35.8791 106.059 40.3283C106.031 40.8835 106.008 41.3374 106.002 41.6583C105.851 45.0486 104.523 52.4401 100.435 55.3635C100.838 57.3137 101.043 59.4142 101.011 61.6743C98.1832 87.8555 90.6223 89.6494 87.8558 89.0149C86.1073 88.6139 86.5235 86.344 86.9132 84.2192C87.14 82.9822 87.3578 81.7943 87.1342 81.0529C86.7923 79.9191 85.3451 76.396 84.0645 73.3552C82.5218 78.5102 80.1794 85.8795 79.4278 86.5062C78.3317 87.42 76.1628 88.0257 74.9572 87.1397C74.0503 86.4733 74.2803 80.2263 74.5448 76.6372C69.4619 78.8435 63.5188 80.0566 57.1885 79.9354C56.4856 79.922 55.7819 79.8935 55.0794 79.8498C53.9277 83.538 52.3504 88.0733 51.7131 88.0611C51.4085 88.0553 50.9851 88.0604 50.5228 88.0659L50.5224 88.0659L50.5222 88.0659L50.522 88.0659C49.4573 88.0787 48.1869 88.0939 47.6878 87.9841C47.164 87.8688 45.7115 81.793 44.8782 77.9941C43.0355 77.4008 41.2783 76.6651 39.6501 75.7771C39.1156 75.4856 38.5923 75.1807 38.0805 74.8635C36.973 78.1444 33.4504 87.6812 32.5841 88.1265C31.64 88.6118 28.1938 88.3301 27.5525 88.0302C27.0665 87.803 27.5865 73.4315 27.9558 65.1364C27.5084 64.4754 27.091 63.8064 26.7045 63.1327C22.6954 57.9206 20.2698 50.5809 20.4246 42.4937C20.5705 34.8738 22.98 28.0047 26.7757 23.008C26.6924 21.3442 26.4416 15.4356 26.9847 13.745C27.6638 11.6309 29.5046 8.85356 31.1964 8.4045C32.6039 8.6707 33.6168 12.1462 34.3247 14.5749L34.3248 14.5749L34.3248 14.575L34.3249 14.5755C34.4076 14.859 34.486 15.1282 34.5605 15.3764L34.6698 16.3928L34.7485 16.3557C37.4108 12.8401 42.3566 10.5298 47.974 10.6373C52.5031 10.724 56.5359 12.3646 59.2524 14.8918L59.7295 13.8414Z" fill="#FDFDFD"/>
<path d="M63.9587 8.94668L63.7987 7.95957L63.7987 7.95957L63.9587 8.94668ZM59.7295 13.8414L58.8724 13.3263L58.8428 13.3755L58.819 13.4278L59.7295 13.8414ZM67.4195 20.5798L66.4263 20.4632L66.382 20.8402L66.5991 21.1516L67.4195 20.5798ZM73.824 30.3306L74.7907 30.0743L74.7907 30.0743L73.824 30.3306ZM72.072 32.5159L71.4484 31.7341L70.0622 32.8399L71.7257 33.454L72.072 32.5159ZM72.4536 32.659L72.0975 33.5934L72.2113 33.6368L72.3322 33.6516L72.4536 32.659ZM91.2989 40.5722L90.6661 41.3465L91.2688 41.839L91.8942 41.3757L91.2989 40.5722ZM101.773 23.7297L102.003 22.7563L100.684 22.4457L100.776 23.7976L101.773 23.7297ZM106.059 40.3283L107.058 40.3784L107.058 40.3784L106.059 40.3283ZM106.002 41.6583L107.001 41.7028L107.002 41.6901L107.002 41.6774L106.002 41.6583ZM100.435 55.3635L99.8537 54.5502L99.3246 54.9286L99.4561 55.5657L100.435 55.3635ZM101.011 61.6743L102.005 61.7816L102.01 61.7351L102.011 61.6884L101.011 61.6743ZM87.8558 89.0149L88.0794 88.0402L88.0794 88.0402L87.8558 89.0149ZM86.9132 84.2192L85.9296 84.0389L85.9296 84.0389L86.9132 84.2192ZM87.1342 81.0529L88.0917 80.7642L88.0917 80.7642L87.1342 81.0529ZM84.0645 73.3552L84.9861 72.9671L83.905 70.4001L83.1065 73.0685L84.0645 73.3552ZM79.4278 86.5062L80.0681 87.2742L80.0681 87.2742L79.4278 86.5062ZM74.9572 87.1397L74.365 87.9455L74.365 87.9455L74.9572 87.1397ZM74.5448 76.6372L75.5421 76.7107L75.6637 75.0614L74.1467 75.7199L74.5448 76.6372ZM55.0794 79.8498L55.1416 78.8517L54.3586 78.8029L54.1248 79.5517L55.0794 79.8498ZM50.5228 88.0659L50.5108 87.066L50.4983 87.0661L50.4857 87.0666L50.5228 88.0659ZM50.5224 88.0659L50.5033 89.0657L50.5314 89.0663L50.5596 89.0652L50.5224 88.0659ZM50.522 88.0659L50.5411 87.0661L50.5256 87.0658L50.51 87.066L50.522 88.0659ZM47.6878 87.9841L47.9027 87.0075L47.9027 87.0075L47.6878 87.9841ZM44.8782 77.9941L45.8549 77.7798L45.7318 77.2183L45.1846 77.0422L44.8782 77.9941ZM39.6501 75.7771L40.1288 74.8992L40.1288 74.8991L39.6501 75.7771ZM38.0805 74.8635L38.6073 74.0136L37.5361 73.3496L37.133 74.5437L38.0805 74.8635ZM32.5841 88.1265L33.0412 89.0159L33.0412 89.0159L32.5841 88.1265ZM27.5525 88.0302L27.1289 88.9361L27.1289 88.9361L27.5525 88.0302ZM27.9558 65.1364L28.9548 65.1808L28.9695 64.85L28.7839 64.5758L27.9558 65.1364ZM26.7045 63.1327L27.5719 62.6351L27.5383 62.5765L27.4971 62.523L26.7045 63.1327ZM26.7757 23.008L27.572 23.6129L27.7927 23.3224L27.7745 22.958L26.7757 23.008ZM26.9847 13.745L26.0326 13.4392L26.0326 13.4392L26.9847 13.745ZM31.1964 8.4045L31.3823 7.42192L31.1593 7.37974L30.9399 7.43797L31.1964 8.4045ZM34.3247 14.5749L33.3647 14.8547L33.3674 14.8638L33.3702 14.8729L34.3247 14.5749ZM34.3248 14.5749L35.2868 14.3021L35.2832 14.2894L35.2793 14.2769L34.3248 14.5749ZM34.3248 14.575L33.3627 14.8478L33.3652 14.8564L34.3248 14.575ZM34.3249 14.5755L35.285 14.2957L35.2845 14.2941L34.3249 14.5755ZM34.5605 15.3764L35.5548 15.2695L35.5449 15.1776L35.5183 15.0891L34.5605 15.3764ZM34.6698 16.3928L33.6756 16.4997L33.8258 17.8963L35.0963 17.2973L34.6698 16.3928ZM34.7485 16.3557L35.1749 17.2602L35.3973 17.1554L35.5457 16.9594L34.7485 16.3557ZM59.2524 14.8918L58.5712 15.6239L59.5883 16.5701L60.1628 15.3054L59.2524 14.8918ZM63.7987 7.95957C63.1972 8.05707 62.6588 8.47879 62.2717 8.83428C61.84 9.23062 61.3977 9.73629 60.9831 10.2591C60.1511 11.3083 59.3548 12.5237 58.8724 13.3263L60.5866 14.3566C61.0385 13.6047 61.7863 12.4651 62.5502 11.5018C62.9335 11.0184 63.302 10.6034 63.6243 10.3075C63.991 9.97081 64.1498 9.92877 64.1187 9.9338L63.7987 7.95957ZM68.4127 20.6963C68.8179 17.2443 68.2869 14.1195 67.4512 11.863C67.035 10.7395 66.5287 9.79169 65.9913 9.1183C65.724 8.78324 65.4218 8.48171 65.0871 8.26781C64.7586 8.05789 64.308 7.87701 63.7987 7.95957L64.1187 9.9338C63.966 9.95856 63.9151 9.89236 64.01 9.95305C64.0988 10.0098 64.2438 10.1348 64.428 10.3657C64.7939 10.8243 65.2084 11.5661 65.5757 12.5577C66.3068 14.5315 66.7931 17.3389 66.4263 20.4632L68.4127 20.6963ZM74.7907 30.0743C74.7277 29.8369 74.5703 29.5481 74.4489 29.3326C74.3019 29.0719 74.1066 28.7487 73.8788 28.3844C73.422 27.6539 72.8137 26.7246 72.1517 25.7325C70.8265 23.7467 69.2695 21.4849 68.2398 20.0079L66.5991 21.1516C67.624 22.6218 69.1728 24.8717 70.4881 26.8427C71.1463 27.829 71.7418 28.7392 72.183 29.4448C72.4041 29.7984 72.5813 30.0924 72.7066 30.3147C72.8574 30.5822 72.8722 30.6424 72.8574 30.5869L74.7907 30.0743ZM72.6956 33.2976C73.1817 32.9098 73.7077 32.4479 74.104 31.992C74.3003 31.7661 74.4963 31.5062 74.6343 31.2288C74.7614 30.9734 74.9165 30.549 74.7907 30.0743L72.8574 30.5869C72.7995 30.3683 72.8864 30.2521 72.8436 30.338C72.8118 30.4019 72.7364 30.5166 72.5945 30.6799C72.3144 31.0021 71.8965 31.3767 71.4484 31.7341L72.6956 33.2976ZM71.7257 33.454C71.8501 33.4999 71.9741 33.5464 72.0975 33.5934L72.8097 31.7245C72.6797 31.675 72.5492 31.6261 72.4183 31.5777L71.7257 33.454ZM72.3322 33.6516C77.3235 34.2622 84.7629 36.523 90.6661 41.3465L91.9316 39.7978C85.6653 34.6776 77.84 32.3105 72.575 31.6664L72.3322 33.6516ZM91.8942 41.3757C93.9459 39.8556 96.7602 37.3156 99.012 34.2459C101.25 31.1946 103.032 27.4843 102.771 23.6617L100.776 23.7976C100.989 26.9318 99.5222 30.169 97.3994 33.0629C95.29 35.9384 92.63 38.3413 90.7036 39.7687L91.8942 41.3757ZM101.544 24.703C102.431 24.9118 103.146 25.5542 103.721 26.6607C104.301 27.7785 104.679 29.2696 104.906 30.9416C105.358 34.2801 105.172 38.0412 105.06 40.2782L107.058 40.3784C107.169 38.1662 107.369 34.2235 106.887 30.6729C106.647 28.9002 106.228 27.1503 105.496 25.7393C104.758 24.3171 103.645 23.1431 102.003 22.7563L101.544 24.703ZM105.06 40.2782C105.033 40.8263 105.009 41.299 105.002 41.6391L107.002 41.6774C107.008 41.3758 107.029 40.9407 107.058 40.3784L105.06 40.2782ZM105.003 41.6137C104.931 43.2315 104.574 45.836 103.744 48.3753C102.905 50.9424 101.637 53.2744 99.8537 54.5502L101.017 56.1769C103.321 54.5292 104.761 51.7038 105.645 48.9966C106.539 46.2618 106.922 43.4754 107.001 41.7028L105.003 41.6137ZM99.4561 55.5657C99.8434 57.4418 100.042 59.4696 100.011 61.6601L102.011 61.6884C102.043 59.3588 101.833 57.1856 101.415 55.1614L99.4561 55.5657ZM100.016 61.5669C98.609 74.5995 96.0362 81.3882 93.5954 84.821C91.2018 88.1873 89.0074 88.2531 88.0794 88.0402L87.6323 89.9896C89.4707 90.4113 92.44 89.8973 95.2254 85.98C97.9634 82.1291 100.585 74.9303 102.005 61.7816L100.016 61.5669ZM88.0794 88.0402C87.8748 87.9933 87.7988 87.9169 87.7492 87.8421C87.6793 87.7368 87.606 87.5392 87.5799 87.1892C87.5257 86.4618 87.6942 85.5044 87.8968 84.3996L85.9296 84.0389C85.7425 85.0589 85.508 86.2988 85.5854 87.3378C85.6252 87.871 85.7513 88.4488 86.083 88.9483C86.4349 89.4783 86.9625 89.836 87.6323 89.9896L88.0794 88.0402ZM87.8968 84.3996C88.0083 83.7914 88.1279 83.1429 88.1876 82.5505C88.2454 81.9765 88.2626 81.3311 88.0917 80.7642L86.1768 81.3417C86.2295 81.5162 86.2495 81.8354 86.1977 82.3499C86.1476 82.846 86.0449 83.41 85.9296 84.0389L87.8968 84.3996ZM88.0917 80.7642C87.7303 79.5659 86.2545 75.979 84.9861 72.9671L83.1429 73.7434C84.4356 76.813 85.8543 80.2723 86.1768 81.3417L88.0917 80.7642ZM83.1065 73.0685C82.3367 75.6409 81.3694 78.7586 80.5028 81.3068C80.0688 82.5828 79.6646 83.7025 79.326 84.5353C79.1561 84.9533 79.0094 85.2825 78.8894 85.517C78.8292 85.6345 78.7829 85.7142 78.7507 85.7633C78.7091 85.8266 78.7203 85.7941 78.7874 85.7381L80.0681 87.2742C80.2292 87.1399 80.3468 86.9764 80.4229 86.8604C80.5083 86.7302 80.5909 86.5823 80.6697 86.4283C80.8277 86.1196 80.9993 85.73 81.1788 85.2885C81.5391 84.4022 81.9578 83.2399 82.3962 81.9508C83.2743 79.369 84.2496 76.2246 85.0225 73.6419L83.1065 73.0685ZM78.7874 85.7381C78.3834 86.0749 77.7288 86.3882 77.0501 86.5148C76.3534 86.6449 75.8366 86.545 75.5493 86.3339L74.365 87.9455C75.2834 88.6204 76.4538 88.6607 77.417 88.4809C78.3981 88.2978 79.376 87.8513 80.0681 87.2742L78.7874 85.7381ZM75.5493 86.3339C75.7016 86.4458 75.6859 86.5364 75.6176 86.33C75.5646 86.1701 75.5105 85.9243 75.4635 85.5851C75.3703 84.9116 75.3229 84.005 75.3117 82.9736C75.2893 80.9189 75.4109 78.4907 75.5421 76.7107L73.5475 76.5637C73.4142 78.3728 73.2886 80.8626 73.3118 82.9953C73.3234 84.0576 73.372 85.062 73.4824 85.8594C73.5373 86.2556 73.6119 86.6353 73.7189 86.9586C73.8105 87.2354 73.986 87.667 74.365 87.9455L75.5493 86.3339ZM74.1467 75.7199C69.2002 77.8669 63.4 79.0541 57.2077 78.9356L57.1694 80.9352C63.6377 81.059 69.7236 79.82 74.943 77.5545L74.1467 75.7199ZM57.2077 78.9356C56.5189 78.9224 55.8295 78.8946 55.1416 78.8517L55.0172 80.8478C55.7343 80.8925 56.4523 80.9215 57.1694 80.9352L57.2077 78.9356ZM54.1248 79.5517C53.5513 81.3883 52.8769 83.4193 52.271 84.9815C51.9662 85.7675 51.6902 86.4047 51.4628 86.8329C51.3464 87.052 51.2641 87.1753 51.2194 87.23C51.1965 87.258 51.21 87.2348 51.2621 87.1976C51.3071 87.1655 51.4737 87.0564 51.7322 87.0613L51.694 89.061C52.0322 89.0674 52.2858 88.9243 52.4244 88.8253C52.5702 88.7212 52.6841 88.5983 52.7675 88.4962C52.9355 88.2908 53.09 88.0329 53.2292 87.7709C53.5128 87.2369 53.8225 86.5121 54.1357 85.7047C54.7657 84.0802 55.4557 81.9994 56.0339 80.1478L54.1248 79.5517ZM51.7322 87.0613C51.4084 87.0551 50.9665 87.0605 50.5108 87.066L50.5348 89.0658C51.0036 89.0602 51.4086 89.0555 51.694 89.061L51.7322 87.0613ZM50.4857 87.0666L50.4853 87.0666L50.5596 89.0652L50.56 89.0652L50.4857 87.0666ZM50.5416 87.0661L50.5413 87.0661L50.503 89.0657L50.5033 89.0657L50.5416 87.0661ZM50.5413 87.0661L50.5411 87.0661L50.5029 89.0657L50.503 89.0657L50.5413 87.0661ZM50.51 87.066C49.9743 87.0724 49.4053 87.0792 48.909 87.0711C48.3803 87.0625 48.0382 87.0373 47.9027 87.0075L47.4729 88.9607C47.8365 89.0407 48.3791 89.0628 48.8766 89.0708C49.4064 89.0794 50.005 89.0722 50.534 89.0658L50.51 87.066ZM47.9027 87.0075C48.094 87.0496 48.2185 87.1402 48.2732 87.1853C48.3319 87.2339 48.3644 87.2753 48.3732 87.2868C48.3898 87.3085 48.3799 87.3002 48.3469 87.2335C48.2837 87.1061 48.1971 86.8916 48.0902 86.5823C47.8795 85.9723 47.6302 85.1114 47.3656 84.114C46.8381 82.1258 46.2702 79.673 45.8549 77.7798L43.9014 78.2083C44.3194 80.1141 44.8944 82.5986 45.4325 84.6269C45.7006 85.6377 45.9648 86.5549 46.1998 87.2352C46.3158 87.5711 46.4351 87.8799 46.5549 88.1216C46.6133 88.2395 46.6892 88.3773 46.785 88.5024C46.8436 88.579 47.0675 88.8715 47.4729 88.9607L47.9027 87.0075ZM45.1846 77.0422C43.3945 76.4658 41.6959 75.7537 40.1288 74.8992L39.1713 76.655C40.8608 77.5764 42.6766 78.3358 44.5717 78.9459L45.1846 77.0422ZM40.1288 74.8991C39.6108 74.6167 39.1036 74.3211 38.6073 74.0136L37.5537 75.7135C38.081 76.0404 38.6203 76.3546 39.1713 76.655L40.1288 74.8991ZM37.133 74.5437C36.5849 76.1676 35.4332 79.356 34.312 82.1905C33.7508 83.6091 33.2031 84.9242 32.7461 85.9055C32.5165 86.3986 32.3188 86.7879 32.1606 87.058C32.0808 87.1943 32.0225 87.2805 31.9858 87.3279C31.9252 87.4061 31.9731 87.3162 32.1269 87.2371L33.0412 89.0159C33.3034 88.8811 33.4803 88.6645 33.567 88.5525C33.6776 88.4097 33.7849 88.2421 33.8865 88.0686C34.0911 87.7191 34.3194 87.2647 34.5592 86.7498C35.0409 85.7152 35.6055 84.3575 36.1717 82.9262C37.3052 80.0608 38.4687 76.8403 39.028 75.1834L37.133 74.5437ZM32.1269 87.2371C32.1294 87.2358 32.1149 87.2434 32.0765 87.2555C32.0392 87.2674 31.9883 87.2808 31.922 87.2944C31.788 87.3219 31.6163 87.3451 31.4103 87.3615C30.9981 87.3944 30.5024 87.3962 29.9993 87.3738C29.4979 87.3514 29.01 87.3059 28.6176 87.25C28.421 87.222 28.2577 87.1927 28.1338 87.1648C27.9937 87.1332 27.9554 87.1147 27.976 87.1243L27.1289 88.9361C27.4427 89.0828 27.9209 89.1709 28.3354 89.23C28.799 89.2961 29.3518 89.3469 29.9102 89.3718C30.4668 89.3966 31.0498 89.3966 31.5693 89.3552C32.0469 89.3171 32.6143 89.2353 33.0412 89.0159L32.1269 87.2371ZM27.976 87.1243C28.1933 87.2259 28.3099 87.3777 28.3556 87.4443C28.4068 87.5192 28.4325 87.5816 28.4419 87.6058C28.4608 87.6544 28.462 87.6753 28.4552 87.6398C28.4433 87.5769 28.4274 87.4521 28.4125 87.2484C28.3833 86.8501 28.3654 86.2633 28.3585 85.5145C28.3448 84.023 28.3755 81.9597 28.4331 79.6335C28.5483 74.9847 28.7703 69.3253 28.9548 65.1808L26.9567 65.0919C26.772 69.2426 26.5493 74.9165 26.4337 79.584C26.3759 81.916 26.3446 84.0065 26.3586 85.5328C26.3655 86.2929 26.3838 86.931 26.4178 87.3945C26.4344 87.6218 26.4569 87.8371 26.4905 88.0137C26.5065 88.098 26.5324 88.2136 26.5777 88.3303C26.6004 88.3887 26.6398 88.4785 26.7053 88.5742C26.7651 88.6616 26.8964 88.8273 27.1289 88.9361L27.976 87.1243ZM28.7839 64.5758C28.3502 63.9351 27.946 63.2871 27.5719 62.6351L25.8371 63.6303C26.236 64.3257 26.6665 65.0157 27.1276 65.6969L28.7839 64.5758ZM27.4971 62.523C23.6405 57.5091 21.2735 50.3971 21.4244 42.5128L19.4248 42.4745C19.2661 50.7648 21.7504 58.3321 25.9118 63.7424L27.4971 62.523ZM21.4244 42.5128C21.5666 35.0855 23.9156 28.4261 27.572 23.6129L25.9794 22.4031C22.0443 27.5833 19.5743 34.662 19.4248 42.4745L21.4244 42.5128ZM27.7745 22.958C27.7331 22.1321 27.6505 20.2571 27.6453 18.3838C27.6427 17.4463 27.6596 16.5215 27.7092 15.7345C27.7607 14.9187 27.8427 14.3435 27.9367 14.0509L26.0326 13.4392C25.8551 13.9918 25.7649 14.7891 25.7132 15.6087C25.6597 16.457 25.6427 17.4303 25.6453 18.3893C25.6506 20.3089 25.735 22.2201 25.777 23.058L27.7745 22.958ZM27.9367 14.0509C28.2406 13.105 28.8177 11.98 29.5125 11.0481C30.239 10.0736 30.9493 9.50473 31.453 9.37103L30.9399 7.43797C29.7517 7.75334 28.6957 8.79762 27.9091 9.85262C27.0907 10.9502 26.4079 12.2709 26.0326 13.4392L27.9367 14.0509ZM31.0106 9.38708C30.9987 9.38483 31.1328 9.41381 31.3823 9.74325C31.6158 10.0514 31.8591 10.5027 32.104 11.0733C32.593 12.2123 33.0066 13.6263 33.3647 14.8547L35.2848 14.2951C34.935 13.0948 34.4881 11.5567 33.9418 10.2842C33.6691 9.64905 33.351 9.02979 32.9765 8.53553C32.6182 8.06256 32.0979 7.55727 31.3823 7.42192L31.0106 9.38708ZM33.3702 14.8729L33.3702 14.8729L35.2793 14.2769L35.2793 14.2769L33.3702 14.8729ZM33.3627 14.8477L33.3627 14.8478L35.2868 14.3022L35.2868 14.3021L33.3627 14.8477ZM33.3652 14.8564L33.3653 14.8569L35.2845 14.2941L35.2844 14.2936L33.3652 14.8564ZM33.3649 14.8553C33.4473 15.1379 33.5269 15.4111 33.6027 15.6638L35.5183 15.0891C35.4452 14.8454 35.3679 14.5801 35.285 14.2957L33.3649 14.8553ZM33.5662 15.4834L33.6756 16.4997L35.6641 16.2858L35.5548 15.2695L33.5662 15.4834ZM35.0963 17.2973L35.1749 17.2602L34.322 15.4512L34.2434 15.4883L35.0963 17.2973ZM35.5457 16.9594C37.9838 13.7399 42.602 11.5347 47.9548 11.6371L47.9931 9.63751C42.1113 9.52494 36.8378 11.9403 33.9513 15.752L35.5457 16.9594ZM47.9548 11.6371C52.2622 11.7196 56.0521 13.2803 58.5712 15.6239L59.9335 14.1596C57.0198 11.4489 52.744 9.72843 47.9931 9.63751L47.9548 11.6371ZM58.819 13.4278L58.3419 14.4782L60.1628 15.3054L60.6399 14.255L58.819 13.4278Z" fill="#9B9DA1" mask="url(#path-1-outside-1_872_356)"/>
<path opacity="0.5" d="M101.773 23.7297C102.191 31.2391 94.4226 38.3193 91.5215 40.3292C96.2488 44.5095 99.3151 50.7675 100.604 55.3335C104.853 51.5878 105.848 45.1135 106.002 41.6583C106.058 38.7664 107.463 25.0695 101.773 23.7297Z" fill="#D9D9D9"/>
<path opacity="0.7" d="M27.5526 88.0301C27.0395 87.7902 27.5692 73.6225 27.9376 65.6477C31.2227 69.7751 37.8366 74.3132 37.6925 75.9834C36.9028 78.2051 33.5283 87.6411 32.5842 88.1264C31.6401 88.6117 28.194 88.33 27.5526 88.0301Z" fill="#D9D9D9"/>
<path opacity="0.7" d="M79.4279 86.5062C78.3318 87.42 76.1629 88.0257 74.9572 87.1397C74.1127 86.5191 74.2541 81.0585 74.4912 77.4121L83.9854 73.6196C82.4428 78.7584 80.1668 85.8902 79.4279 86.5062Z" fill="#D9D9D9"/>
<path d="M84.1955 75.3867L82.5796 71.462" stroke="#9B9DA1"/>
<path d="M27.1479 65.05C30.5205 70.0069 37.0849 75.0548 38.3613 75.7798" stroke="#9B9DA1" stroke-width="4"/>
<path d="M73.9647 77.5654C76.7072 76.3332 82.3142 73.7978 83.5594 73.4276" stroke="#9B9DA1"/>
<path d="M44.3406 78.5292L42.8047 69.7535" stroke="#9B9DA1" stroke-width="4"/>
<path d="M55.4261 80.8623L58.0679 72.3539" stroke="#9B9DA1" stroke-width="4"/>
<path d="M91.2855 39.7368C94.8691 42.6054 100.625 52.5155 101.117 55.5617" stroke="#9B9DA1"/>
<path d="M47.9741 10.6373C42.3799 10.5302 37.4517 12.8211 34.7816 16.3123L59.2279 14.8688C56.5117 12.3547 52.4896 10.7237 47.9741 10.6373Z" fill="url(#paint0_linear_872_356)"/>
<path d="M63.9585 8.94664C62.8175 9.13159 60.6636 12.2869 59.7292 13.8414L56.761 20.3757L70.9881 33.3134C72.0137 32.6222 74.0166 31.058 73.8238 30.3305C73.6309 29.6031 69.4737 23.5269 67.4192 20.5797C68.1913 14.0033 65.3846 8.71545 63.9585 8.94664Z" fill="url(#paint1_linear_872_356)"/>
<ellipse cx="50.3821" cy="29.8352" rx="2.20195" ry="2.20195" transform="rotate(1.09639 50.3821 29.8352)" fill="black"/>
<ellipse cx="35.9509" cy="27.6713" rx="2.20195" ry="2.20195" transform="rotate(1.09639 35.9509 27.6713)" fill="black"/>
<circle cx="50.7186" cy="30.2094" r="0.411637" transform="rotate(1.09639 50.7186 30.2094)" fill="#FDFDFD"/>
<circle cx="35.7914" cy="28.152" r="0.411637" transform="rotate(1.09639 35.7914 28.152)" fill="#FDFDFD"/>
<rect x="39.7021" y="34.3112" width="5.40251" height="2.32803" rx="1" transform="rotate(8.85423 39.7021 34.3112)" fill="black"/>
<rect x="40.4634" y="35.1219" width="0.835083" height="0.35985" rx="0.179925" transform="rotate(8.85638 40.4634 35.1219)" fill="white" fill-opacity="0.77"/>
<path d="M97.1977 80.0341C99.4135 73.75 100.698 66.1558 101.015 61.6068C101.112 60.2248 100.947 59.1887 100.916 57.9846C100.325 52.7516 97.7413 48.7972 93.2832 42.7363C92.8345 42.1812 92.3328 41.6777 91.8473 41.0931C87.2995 36.8511 79.0862 33.3326 72.1577 32.5975C72.1577 32.5975 80.1353 39.5491 83.3152 46.7041C87.2588 55.5779 87.9832 56.6884 90.2045 62.2221C94.0539 71.8116 97.1977 80.0341 97.1977 80.0341Z" fill="url(#paint2_linear_872_356)"/>
<path d="M62.6502 15.0405C62.1864 14.7115 61.7734 14.4186 61.3999 14.1252C61.4375 14.0729 61.4767 14.0184 61.5173 13.962C61.8285 13.529 62.2215 12.9823 62.6217 12.4795C62.8818 12.1526 63.1403 11.8502 63.3764 11.6142C63.5877 11.403 63.7615 11.2651 63.8891 11.2C63.9247 11.2132 63.9806 11.245 64.0576 11.317C64.1673 11.4196 64.2918 11.5782 64.4255 11.7923C64.6921 12.2193 64.9722 12.8298 65.23 13.5487C65.681 14.8066 66.0522 16.3636 66.1672 17.7856C65.1495 16.8804 64.2562 16.1976 63.4736 15.6294C63.1821 15.4177 62.9083 15.2235 62.6502 15.0405Z" fill="#EDD8D8" stroke="#9B9DA1" stroke-width="0.5"/>
<path d="M28.3202 14.3823C28.132 15.0782 28.0788 18.2936 28.215 19.8792L32.8034 15.218C32.4173 13.6276 31.3923 10.5919 30.3814 11.1724C29.1177 11.8981 28.5893 13.3877 28.3202 14.3823Z" fill="#EDD8D8" stroke="#9B9DA1" stroke-width="0.5"/>
<path d="M44.9272 44.098C43.6827 43.7143 43.5625 42.7638 43.5791 42.1472L49.0819 42.6419C49.2385 42.7365 49.3186 42.537 49.4455 43.4572C49.6041 44.6076 48.5377 44.4544 48.4343 45.2617C48.3308 46.0689 47.4175 47.5574 46.4396 46.6109C45.4617 45.6643 46.4828 44.5776 44.9272 44.098Z" fill="#BFD9DD" stroke="black" stroke-width="0.2"/>
<path d="M41.4596 40.445C41.0268 41.7496 39.0878 42.2803 37.1288 41.6303C35.1698 40.9803 33.9327 39.3958 34.3656 38.0911C34.7985 36.7865 36.7375 36.2558 38.6964 36.9058C40.6554 37.5558 41.8925 39.1404 41.4596 40.445Z" fill="#FDFDFD"/>
<ellipse cx="46.1801" cy="40.3517" rx="4.15327" ry="2.39732" transform="rotate(18.3564 46.1801 40.3517)" fill="#FDFDFD"/>
<path d="M42.642 36.8969C42.2127 37.6373 41.7828 40.7572 41.8727 41.1219" stroke="black"/>
<path d="M42.5898 40.7579L42.2742 40.3701L41.4986 41.0013L41.8142 41.3891L42.5898 40.7579ZM50.5253 38.9534C50.3865 38.7146 50.0804 38.6337 49.8417 38.7725C49.603 38.9113 49.522 39.2174 49.6609 39.4561L50.5253 38.9534ZM41.8142 41.3891C42.4295 42.1452 43.4532 42.6514 44.5307 42.9397C45.6201 43.2312 46.8377 43.3203 47.9154 43.1827C48.9715 43.0479 49.9985 42.6807 50.5814 41.9564C50.8831 41.5815 51.0535 41.124 51.0464 40.5989C51.0395 40.0833 50.8624 39.5329 50.5253 38.9534L49.6609 39.4561C49.9394 39.935 50.0425 40.3169 50.0465 40.6124C50.0503 40.8983 49.9623 41.1307 49.8023 41.3294C49.462 41.7523 48.7528 42.0677 47.7887 42.1907C46.8462 42.311 45.7595 42.2333 44.7892 41.9737C43.8072 41.7109 43.0159 41.2815 42.5898 40.7579L41.8142 41.3891Z" fill="black"/>
<path d="M34.8805 36.3186C35.0981 36.1486 35.4123 36.1872 35.5823 36.4048C35.7523 36.6224 35.7137 36.9366 35.4961 37.1066L34.8805 36.3186ZM42.3489 40.5908C41.5718 41.7077 40.4513 42.1931 39.3006 42.2468C38.1656 42.2998 36.9992 41.936 36.0499 41.3651C35.1081 40.7987 34.3116 39.986 33.9938 39.077C33.8319 38.6142 33.7923 38.1177 33.9372 37.6275C34.0822 37.1369 34.3995 36.6944 34.8805 36.3186L35.4961 37.1066C35.1492 37.3776 34.9721 37.654 34.8962 37.9109C34.8201 38.1682 34.8332 38.4481 34.9377 38.7469C35.1526 39.3614 35.7436 40.0139 36.5653 40.5081C37.3795 40.9978 38.3526 41.2899 39.2541 41.2479C40.14 41.2066 40.9531 40.846 41.528 40.0197L42.3489 40.5908Z" fill="black"/>
<circle cx="37.896" cy="38.0679" r="0.197828" transform="rotate(18.3564 37.896 38.0679)" fill="black"/>
<circle cx="38.7822" cy="40.8876" r="0.197828" transform="rotate(18.3564 38.7822 40.8876)" fill="black"/>
<circle cx="36.9384" cy="39.6979" r="0.197828" transform="rotate(18.3564 36.9384 39.6979)" fill="black"/>
<circle cx="46.3418" cy="41.5244" r="0.197828" transform="rotate(18.3564 46.3418 41.5244)" fill="black"/>
<circle cx="44.8447" cy="39.5494" r="0.197828" transform="rotate(18.3564 44.8447 39.5494)" fill="black"/>
<circle cx="48.2192" cy="39.8572" r="0.197828" transform="rotate(18.3564 48.2192 39.8572)" fill="black"/>
<path d="M36.2036 41.9088L13.2608 33.559C9.99962 32.3721 6.55078 34.7871 6.55078 38.2575V77.6915C6.55078 79.7254 7.78285 81.5567 9.66689 82.323L36.2036 93.1169V41.9088Z" fill="#717788"/>
<path d="M67.5508 41.1622C67.5508 37.9624 64.5869 35.5861 61.4636 36.2818L36.2036 41.9088V93.1169L64.1497 83.6846C66.1823 82.9986 67.5508 81.0924 67.5508 78.9472V41.1622Z" fill="#E2F1FF"/>
<path d="M36.2036 41.9088L13.2608 33.559C9.99962 32.3721 6.55078 34.7871 6.55078 38.2575V77.6915C6.55078 79.7254 7.78285 81.5567 9.66689 82.323L36.2036 93.1169M36.2036 41.9088L61.4636 36.2818C64.5869 35.5861 67.5508 37.9624 67.5508 41.1622V78.9472C67.5508 81.0924 66.1823 82.9986 64.1497 83.6846L36.2036 93.1169M36.2036 41.9088V93.1169" stroke="#414756"/>
<path d="M51.1335 55.8427L50.7113 50.2185L48.8359 54.5711L47.9384 54.6385L45.4342 50.6147L45.8564 56.2389L44.205 56.3628L43.5672 47.8667L45.3383 47.7338L48.2141 52.3795L50.388 47.3547L52.1471 47.2227L52.7849 55.7188L51.1335 55.8427ZM54.798 55.5676L54.1602 47.0715L57.2476 46.8398C57.9416 46.7877 58.5563 46.8539 59.0916 47.0383C59.6349 47.2222 60.0964 47.4924 60.4762 47.8489C60.8559 48.2055 61.153 48.6365 61.3674 49.1419C61.5813 49.6392 61.71 50.1791 61.7538 50.7615C61.8023 51.4077 61.7466 52.0015 61.5866 52.543C61.4341 53.0759 61.1884 53.5436 60.8496 53.9461C60.5102 54.3406 60.089 54.661 59.586 54.9074C59.0904 55.1451 58.5235 55.288 57.8853 55.3359L54.798 55.5676ZM60.0904 50.8863C60.0599 50.4795 59.9759 50.1087 59.8385 49.7741C59.701 49.4394 59.5153 49.1565 59.2814 48.9254C59.0474 48.6943 58.7658 48.5229 58.4365 48.4112C58.1152 48.2989 57.7551 48.2578 57.3562 48.2877L55.9203 48.3955L56.3407 53.9958L57.7766 53.888C58.1835 53.8574 58.5371 53.7587 58.8374 53.5917C59.1458 53.4242 59.3944 53.209 59.5832 52.9461C59.7794 52.6746 59.9205 52.3632 60.0065 52.0118C60.0924 51.6604 60.1204 51.2852 60.0904 50.8863Z" fill="#414756"/>
</g>
<defs>
<linearGradient id="paint0_linear_872_356" x1="47.9855" y1="11.2405" x2="48.0428" y2="16.9782" gradientUnits="userSpaceOnUse">
<stop stop-color="#EBEBEB"/>
<stop offset="0.64491" stop-color="#EBEBEB" stop-opacity="0"/>
</linearGradient>
<linearGradient id="paint1_linear_872_356" x1="66.9411" y1="14.4165" x2="63.6728" y2="19.5994" gradientUnits="userSpaceOnUse">
<stop stop-color="#EBEBEB"/>
<stop offset="1" stop-color="#EBEBEB" stop-opacity="0"/>
</linearGradient>
<linearGradient id="paint2_linear_872_356" x1="92.1909" y1="47.0909" x2="85.1859" y2="50.5055" gradientUnits="userSpaceOnUse">
<stop stop-color="#EBEBEB"/>
<stop offset="1" stop-color="#EBEBEB" stop-opacity="0"/>
</linearGradient>
<clipPath id="clip0_872_356">
<rect width="113" height="101" fill="white"/>
</clipPath>
</defs>
</svg>
